<svg xmlns="http://www.w3.org/2000/svg" xmlns:xlink="http://www.w3.org/1999/xlink"
    xmlns:serif="http://www.serif.com/" viewBox="0 0 100 125" version="1.1" xml:space="preserve"
    style="" x="0px" y="0px" fill-rule="evenodd" clip-rule="evenodd" stroke-linejoin="round"
    stroke-miterlimit="2"><rect serif:id="21 - chopsticks" x="0" y="0" width="100" height="100" style="" fill="none"/><g serif:id="21 - chopsticks"><g><path d="M90.485,10.965c0.47,-0.369 1.109,-0.44 1.648,-0.183c1.052,0.568 1.729,1.389 1.941,2.567c0.103,0.559 -0.12,1.128 -0.575,1.469c-7.242,5.52 -78.991,59.279 -85.82,64.395c-0.289,0.217 -0.698,0.161 -0.918,-0.126c-0.223,-0.29 -0.5,-0.652 -0.723,-0.943c-0.22,-0.286 -0.168,-0.696 0.115,-0.919c6.699,-5.263 76.977,-60.481 84.332,-66.26Z"/><path d="M70.715,25.729l14.399,-19.217c0.358,-0.479 0.957,-0.713 1.544,-0.604c1.163,0.277 2.03,0.894 2.539,1.977c0.244,0.514 0.176,1.121 -0.175,1.568c-0.647,0.838 -1.969,2.533 -3.808,4.884l-14.499,11.392Zm0.244,6.798c-18.478,23.554 -44.625,56.833 -48.166,61.339c-0.223,0.284 -0.632,0.336 -0.919,0.116l-0.943,-0.724c-0.286,-0.22 -0.343,-0.629 -0.126,-0.918l37.964,-50.667c4.22,-3.165 8.338,-6.255 12.19,-9.146Z"/><path d="M12.744,87.275c-3.034,-3.035 -3.034,-7.961 0,-10.995c3.034,-3.034 7.961,-3.034 10.995,-0c3.034,3.034 3.034,7.96 0,10.995c-3.034,3.034 -7.961,3.034 -10.995,-0Z"/></g></g></svg>